# xmcd CD database file
#
# Track frame offsets:
#	150
#	23312
#	35575
#	53375
#	68855
#	98240
#	120760
#	144482
#	167320
#	189077
#
# Disc length: 3206 seconds
#
# Revision: 2
# Processed by: cddbd v1.5PL3 Copyright (c) Steve Scherf et al.
# Submitted via: CDex 1.51
#
DISCID=680c840a
DTITLE=Canned Heat and John Lee Hooker - Hooker 'n Heat
DYEAR=1981
DGENRE=Blues
TTITLE0=Hell Hound
TTITLE1=Strut My Stuff
TTITLE2=Open Up Your Back Door
TTITLE3=House of Blue Lights
TTITLE4=It Hurts Me Too
TTITLE5=Wrapped Up
TTITLE6=Medley: Let's Work Together/Going Up the Country
TTITLE7=Tease Me Baby
TTITLE8=Serves Me Right To Suffer
TTITLE9=Nobody Else But You
EXTD=YEAR: 1981
EXTT0=
EXTT1=
EXTT2=
EXTT3=
EXTT4=
EXTT5=
EXTT6=
EXTT7=
EXTT8=
EXTT9=
PLAYORDER=
